<svg width="96" height="41" viewBox="0 0 96 41" fill="none" xmlns="http://www.w3.org/2000/svg">
<path d="M88.1499 33.759L83.6178 20.7856H87.1322L89.2194 27.5204L89.7958 29.5996H89.8549C89.9742 29.0446 90.1526 28.3519 90.4112 27.5204L92.5385 20.7856H96.0002L91.449 33.759H88.1499ZM50.1445 33.759V15.6955H53.603V33.7803H50.1487L50.1445 33.759ZM38.2435 38.0165V35.3034H39.4554C40.7476 35.3034 41.3832 34.71 41.3832 33.5412C41.3832 32.9659 41.0453 31.7983 40.3897 30.035L36.8721 20.8059H40.509L42.4368 26.6484L43.2718 29.4811H43.3309C43.5695 28.3914 43.8282 27.4404 44.0868 26.6484L45.9153 20.8059H49.3928L44.8417 34.1155C44.3254 35.6001 43.7691 36.6301 43.1325 37.1851C42.4991 37.7593 41.5426 38.039 40.2504 38.039H38.2446L38.2435 38.0165ZM33.1761 33.759L29.5191 27.8364L28.0126 29.3818V33.7579H24.5689V15.6955H28.0126V25.7177L32.644 20.808H36.7982L31.9884 25.7391L37.3725 33.7803H33.175L33.1761 33.759ZM16.0642 34.1742C13.5991 34.1742 11.6914 33.6597 10.3401 32.6095C8.98881 31.5805 8.27304 30.0948 8.21286 28.1736H11.8308C11.9501 29.241 12.3269 30.0351 12.9836 30.4908C13.6392 30.9658 14.6126 31.2038 15.9248 31.2038C16.9583 31.2038 17.8124 31.0053 18.4691 30.6296C19.1257 30.2539 19.4614 29.6594 19.4614 28.8706C19.4636 28.6085 19.4233 28.3478 19.3421 28.0989C19.2455 27.8515 19.0797 27.6379 18.8649 27.4841C18.6264 27.3059 18.4279 27.1639 18.2495 27.0487C18.0711 26.9334 17.7723 26.8352 17.3152 26.6922C16.858 26.5737 16.5002 26.4787 16.2816 26.4147C16.043 26.356 15.606 26.2567 14.9493 26.0945C14.1744 25.9162 13.5389 25.7583 13.0216 25.6195C12.4532 25.4617 11.9011 25.2494 11.3726 24.9855C10.8447 24.755 10.3603 24.4336 9.94105 24.0356C9.58317 23.6983 9.30763 23.2426 9.06693 22.6684C8.81927 22.0526 8.69753 21.3925 8.70904 20.7279C8.70904 18.985 9.34247 17.6572 10.6368 16.7265C11.9289 15.8353 13.598 15.3604 15.6852 15.3604C17.7522 15.3604 19.4012 15.8556 20.6544 16.8258C21.8864 17.796 22.5821 19.2027 22.7204 21.0044H19.1827C19.0835 20.1334 18.7066 19.46 18.07 18.985C17.4334 18.51 16.6395 18.272 15.6651 18.272C14.6717 18.272 13.8767 18.4695 13.2803 18.8462C12.6855 19.2419 12.3882 19.7563 12.3882 20.3896C12.3756 20.7015 12.4511 21.0106 12.6059 21.2807C12.7607 21.5508 12.9884 21.7708 13.2623 21.9148C13.8387 22.235 14.8723 22.5488 16.3429 22.885C17.218 23.0633 17.9528 23.2415 18.5092 23.4005C19.1261 23.5852 19.7305 23.8102 20.3187 24.074C20.878 24.31 21.3948 24.6378 21.8484 25.0442C22.2456 25.4441 22.5569 25.9227 22.7626 26.4499C23.0206 27.0912 23.1491 27.7781 23.1406 28.4703C23.1406 30.2528 22.485 31.6595 21.1727 32.6692C19.8837 33.6597 18.1692 34.1742 16.0631 34.1742H16.0642ZM79.2862 26.6879C79.2908 27.0148 79.1991 27.3358 79.0228 27.6099C78.8465 27.884 78.5935 28.0989 78.296 28.2272C77.9985 28.3555 77.67 28.3914 77.3523 28.3304C77.0346 28.2694 76.7419 28.1142 76.5117 27.8846C76.2814 27.655 76.124 27.3613 76.0593 27.041C75.9946 26.7206 76.0257 26.388 76.1485 26.0855C76.2713 25.7831 76.4803 25.5244 76.749 25.3424C77.0177 25.1603 77.3338 25.0633 77.6573 25.0634C78.0855 25.0628 78.4967 25.2331 78.8016 25.5373C79.1064 25.8415 79.2801 26.2549 79.2852 26.6879H79.2862ZM64.6182 26.6879C64.6228 27.0148 64.5311 27.3358 64.3548 27.6099C64.1785 27.884 63.9255 28.0989 63.628 28.2272C63.3305 28.3555 63.002 28.3914 62.6843 28.3304C62.3666 28.2694 62.074 28.1142 61.8437 27.8846C61.6135 27.655 61.456 27.3613 61.3913 27.041C61.3266 26.7206 61.3577 26.388 61.4805 26.0855C61.6033 25.7831 61.8123 25.5244 62.081 25.3424C62.3497 25.1603 62.6658 25.0633 62.9893 25.0634C63.4175 25.0628 63.8287 25.2331 64.1336 25.5373C64.4384 25.8415 64.6122 26.2549 64.6172 26.6879H64.6182ZM77.4197 30.1514C76.9618 30.1553 76.5078 30.0662 76.0845 29.8895C75.6613 29.7127 75.2774 29.4519 74.9557 29.1225L72.4917 26.6676L74.7171 24.4689L74.9557 24.2309C75.6129 23.5787 76.4988 23.216 77.4197 23.2223C79.3485 23.2223 80.9183 24.787 80.9183 26.6879C80.9152 28.6091 79.3453 30.1514 77.4197 30.1514ZM67.4823 30.3499L67.324 30.5089C66.2961 31.5314 64.9095 32.1009 63.4675 32.0929C60.4672 32.0929 58.0222 29.6572 58.0222 26.6858C58.0222 23.6973 60.4672 21.2787 63.4675 21.2787C64.908 21.2794 66.2915 21.848 67.324 22.8637L71.1594 26.6858L67.4823 30.3499ZM77.5992 20.1505C76.4588 20.1482 75.3373 20.4445 74.3439 21.0105C73.3504 21.5765 72.5188 22.3929 71.93 23.3803C70.5787 20.0534 67.3398 17.8547 63.6818 17.8547C58.7728 17.8547 54.798 21.8156 54.798 26.6879C54.798 31.5603 58.7928 35.5211 63.6818 35.5211C67.3398 35.5211 70.5787 33.3224 71.93 29.9956C72.5203 30.9805 73.3516 31.7951 74.3439 32.3606C75.3362 32.9262 76.4559 33.2236 77.595 33.2242C81.2118 33.2242 84.1731 30.2923 84.1731 26.6879C84.1731 23.0835 81.2329 20.1527 77.596 20.1527L77.5992 20.1505Z" fill="white"/>
<path d="M51.2851 38.1318C51.8647 38.1318 52.1761 38.467 52.1761 38.8854C52.1829 39.0204 52.1463 39.1539 52.072 39.2662C51.9976 39.3785 51.8893 39.4636 51.7633 39.5087V39.5236C51.9045 39.5648 52.0275 39.6537 52.1116 39.7755C52.1958 39.8973 52.2361 40.0446 52.2257 40.1928C52.2257 40.6614 51.8942 40.9955 51.3189 40.9955C50.7435 40.9955 50.3339 40.7222 50.3149 40.0947H50.9388C50.9344 40.1432 50.9407 40.1922 50.9571 40.2381C50.9736 40.2839 50.9998 40.3256 51.034 40.36C51.0681 40.3945 51.1094 40.4209 51.1548 40.4373C51.2002 40.4538 51.2487 40.46 51.2967 40.4554C51.338 40.4588 51.3796 40.4531 51.4185 40.4386C51.4574 40.4241 51.4928 40.4013 51.5221 40.3716C51.5514 40.342 51.574 40.3063 51.5883 40.2669C51.6027 40.2276 51.6083 40.1855 51.605 40.1437C51.605 39.8961 51.4582 39.7979 51.1236 39.7979H51.0032V39.2696H51.1236C51.3421 39.2696 51.5522 39.2162 51.5522 38.9654C51.5563 38.9268 51.5518 38.8877 51.5391 38.8511C51.5265 38.8144 51.5059 38.781 51.4789 38.7534C51.452 38.7257 51.4193 38.7044 51.3832 38.6911C51.3471 38.6777 51.3086 38.6726 51.2703 38.6762C51.0592 38.6762 50.9884 38.8277 50.9768 38.9804H50.3487C50.3709 38.4328 50.7245 38.1318 51.2851 38.1318Z" fill="white"/>
<path d="M53.9584 38.9465C53.9215 38.7639 53.8307 38.6647 53.6417 38.6647C53.3514 38.6647 53.2385 38.9123 53.2353 39.4481C53.3007 39.3547 53.3885 39.2796 53.4904 39.2298C53.5923 39.18 53.705 39.157 53.818 39.1631C54.2952 39.1631 54.6341 39.4833 54.6341 40.0565C54.6341 40.6083 54.2878 40.9883 53.6977 40.9883C52.87 40.9883 52.6673 40.3948 52.6673 39.5666C52.6673 38.6156 52.9608 38.1406 53.6713 38.1406C54.2614 38.1406 54.5254 38.5355 54.5591 38.9465H53.9584ZM53.286 40.049C53.2809 40.1012 53.2873 40.1538 53.3047 40.2032C53.3222 40.2525 53.3503 40.2973 53.3869 40.3344C53.4236 40.3714 53.4679 40.3998 53.5167 40.4175C53.5655 40.4351 53.6176 40.4416 53.6692 40.4364C53.7182 40.4397 53.7673 40.432 53.8131 40.4141C53.8589 40.3961 53.9003 40.3683 53.9343 40.3325C53.9684 40.2968 53.9943 40.2539 54.0104 40.207C54.0264 40.16 54.0321 40.1101 54.0271 40.0607C54.0271 39.8281 53.9025 39.6765 53.6618 39.6765C53.6121 39.6724 53.562 39.6792 53.5151 39.6964C53.4682 39.7136 53.4254 39.7407 53.3898 39.7761C53.3542 39.8114 53.3265 39.854 53.3085 39.9011C53.2906 39.9482 53.2829 39.9986 53.286 40.049V40.049Z" fill="white"/>
<path d="M56.0527 38.1406C56.835 38.1406 57.1084 38.733 57.1084 39.5474C57.1084 40.3617 56.8339 40.9616 56.0527 40.9616C55.2715 40.9616 54.997 40.3681 54.997 39.5474C54.997 38.7266 55.2704 38.1406 56.0527 38.1406ZM56.0527 38.749C55.6726 38.749 55.6304 39.1215 55.6304 39.5474C55.6304 39.9732 55.6748 40.3532 56.0527 40.3532C56.4306 40.3532 56.475 39.9882 56.475 39.5474C56.475 39.1066 56.4328 38.749 56.0527 38.749Z" fill="white"/>
<path d="M59.3513 40.0149H58.9522V40.9755H58.3114V38.3071H59.3534C60.0005 38.3071 60.3236 38.6754 60.3236 39.1663C60.3173 39.6039 60.0238 40.0149 59.3513 40.0149ZM59.3017 39.4972C59.5582 39.4972 59.6669 39.368 59.6669 39.1631C59.6669 38.9582 59.5614 38.828 59.3017 38.828H58.9522V39.4972H59.3017Z" fill="white"/>
<path d="M61.7348 38.304C62.3819 38.304 62.705 38.6797 62.705 39.1439C62.7089 39.321 62.6529 39.494 62.5461 39.6344C62.4393 39.7748 62.2883 39.874 62.118 39.9156L62.7272 40.9733H62.0061L61.4571 39.9658H61.2988V40.9733H60.6548V38.305L61.7348 38.304ZM61.6968 38.844H61.2988V39.5058H61.6968C61.9375 39.5058 62.0504 39.3798 62.0504 39.1706C62.0504 38.9614 61.9375 38.844 61.6968 38.844V38.844Z" fill="white"/>
<path d="M64.3554 40.9999C64.0878 41.0011 63.8258 40.9221 63.6026 40.7727C63.3794 40.6233 63.2051 40.4104 63.1017 40.1608C62.9983 39.9112 62.9705 39.6362 63.0218 39.3706C63.0731 39.105 63.2012 38.8608 63.3899 38.6689C63.5785 38.4769 63.8193 38.3459 64.0816 38.2924C64.344 38.2389 64.6162 38.2653 64.8637 38.3682C65.1112 38.4712 65.323 38.6461 65.4721 38.8708C65.6212 39.0955 65.7011 39.3599 65.7015 39.6305C65.705 39.8106 65.6727 39.9896 65.6064 40.1568C65.5402 40.324 65.4413 40.476 65.3157 40.6037C65.1901 40.7315 65.0404 40.8324 64.8754 40.9005C64.7104 40.9685 64.5336 41.0023 64.3554 40.9999ZM64.3554 40.4064C64.7777 40.4064 65.0512 40.098 65.0512 39.6305C65.0512 39.163 64.7767 38.8545 64.3554 38.8545C63.9342 38.8545 63.6566 39.1555 63.6566 39.6305C63.6566 40.1054 63.9268 40.4064 64.3554 40.4064V40.4064Z" fill="white"/>
<path d="M67.104 40.0149H66.7049V40.9755H66.062V38.3071H67.104C67.7511 38.3071 68.0742 38.6754 68.0742 39.1663C68.0742 39.6039 67.7775 40.0149 67.104 40.0149ZM67.0554 39.4972C67.3109 39.4972 67.4197 39.368 67.4197 39.1631C67.4197 38.9582 67.3141 38.828 67.0554 38.828H66.7049V39.4972H67.0554Z" fill="white"/>
<path d="M70.0295 38.825H69.0562V39.365H69.9166V39.8667H69.0562V40.4526H70.0295V40.9735H68.409V38.3052H70.0295V38.825Z" fill="white"/>
<path d="M71.5223 38.304C72.1694 38.304 72.4925 38.6797 72.4925 39.1439C72.4964 39.321 72.4403 39.494 72.3336 39.6344C72.2268 39.7748 72.0757 39.874 71.9055 39.9156L72.5146 40.9733H71.7894L71.2404 39.9658H71.0852V40.9733H70.4412V38.305L71.5223 38.304ZM71.4843 38.844H71.0852V39.5058H71.4832C71.7239 39.5058 71.8369 39.3798 71.8369 39.1706C71.8369 38.9614 71.725 38.844 71.4843 38.844V38.844Z" fill="white"/>
<path d="M72.7511 38.304H74.7939V38.8248H74.0939V40.9733H73.451V38.8248H72.7511V38.304Z" fill="white"/>
<path d="M74.9088 38.304H75.6393L76.1524 39.4215L76.6602 38.304H77.3823L76.4691 40.0907V40.9733H75.8262V40.0907L74.9088 38.304Z" fill="white"/>
<path d="M79.4779 40.0149H79.0799V40.9755H78.4359V38.3071H79.4779C80.1251 38.3071 80.4481 38.6754 80.4481 39.1663C80.4481 39.6039 80.1515 40.0149 79.4779 40.0149ZM79.4294 39.4972C79.6848 39.4972 79.7936 39.368 79.7936 39.1631C79.7936 38.9582 79.688 38.828 79.4294 38.828H79.0799V39.4972H79.4294Z" fill="white"/>
<path d="M82.0317 40.9999C81.7642 41.0005 81.5025 40.9209 81.2798 40.7712C81.057 40.6214 80.8832 40.4082 80.7803 40.1586C80.6774 39.9089 80.65 39.634 80.7017 39.3686C80.7533 39.1033 80.8816 38.8593 81.0704 38.6677C81.2592 38.4761 81.5 38.3454 81.7623 38.2922C82.0246 38.2389 82.2966 38.2655 82.5439 38.3685C82.7912 38.4716 83.0028 38.6465 83.1518 38.8711C83.3008 39.0958 83.3805 39.36 83.3809 39.6305C83.3843 39.8108 83.3518 39.99 83.2853 40.1574C83.2188 40.3247 83.1196 40.4768 82.9937 40.6046C82.8678 40.7324 82.7178 40.8332 82.5525 40.9011C82.3872 40.9691 82.2101 41.0026 82.0317 40.9999ZM82.0317 40.4064C82.454 40.4064 82.7275 40.098 82.7275 39.6305C82.7275 39.163 82.453 38.8545 82.0317 38.8545C81.6105 38.8545 81.3318 39.1555 81.3318 39.6305C81.3318 40.1054 81.6021 40.4064 82.0317 40.4064V40.4064Z" fill="white"/>
<path d="M84.8175 38.304C85.4636 38.304 85.7877 38.6797 85.7877 39.1439C85.7916 39.321 85.7356 39.494 85.6288 39.6344C85.522 39.7748 85.371 39.874 85.2007 39.9156L85.8099 40.9733H85.0846L84.5346 39.9658H84.3804V40.9733H83.7375V38.305L84.8175 38.304ZM84.7795 38.844H84.3804V39.5058H84.7795C85.0202 39.5058 85.1331 39.3798 85.1331 39.1706C85.1331 38.9614 85.0202 38.844 84.7795 38.844V38.844Z" fill="white"/>
<path d="M86.0463 38.304H88.0891V38.8248H87.3891V40.9733H86.7462V38.8248H86.0463V38.304Z" fill="white"/>
<path d="M90.0551 40.4995H89.0701L88.9118 40.9713H88.2382L89.1884 38.303H89.9337L90.8838 40.9713H90.2029L90.0551 40.4995ZM89.56 39.0224L89.2433 40H89.8936L89.56 39.0224Z" fill="white"/>
<path d="M91.8256 38.304V40.4706H92.6702V40.9733H91.1827V38.305L91.8256 38.304Z" fill="white"/>
<path d="M35.4023 17.7244C34.9462 17.7244 34.544 17.7244 34.1418 17.7244C33.8513 17.7204 33.5682 17.8174 33.3401 17.9993C33.1119 18.1812 32.9525 18.4368 32.8887 18.7234C32.8367 18.9371 32.8122 19.1566 32.8158 19.3766C32.8158 19.5036 32.8158 19.6317 32.8158 19.7587H34.3297V19.4961H34.5408C35.0592 19.4961 35.5775 19.4961 36.0959 19.4961C36.3312 19.5023 36.563 19.4377 36.762 19.3106C36.9611 19.1835 37.1183 18.9996 37.2139 18.7821C37.5665 18.0777 37.4176 17.3412 36.8201 16.7766C35.8482 15.8566 34.8769 14.9354 33.9064 14.0133C32.1307 12.329 30.355 10.6448 28.5793 8.96054C28.5339 8.92131 28.4982 8.87197 28.4749 8.81641C28.4517 8.76084 28.4415 8.70057 28.4452 8.64034C28.4494 7.40011 28.4494 6.16058 28.4452 4.92177C28.4531 4.68195 28.4436 4.44186 28.4167 4.20346C28.3723 3.90034 28.2847 3.61429 28.0651 3.41577L27.9416 3.29089C27.9414 3.28497 27.9392 3.27932 27.9353 3.27488C27.7274 3.09096 27.4609 2.98902 27.1847 2.98777C26.2754 2.98777 25.3657 2.98777 24.4557 2.98777C24.2747 2.98443 24.0957 3.02517 23.9336 3.10654C23.7716 3.18791 23.6312 3.30751 23.5245 3.45526C23.429 3.59683 23.3412 3.74364 23.2617 3.895C23.2279 3.86511 23.1952 3.83629 23.1645 3.80748C22.0223 2.72165 20.8803 1.63618 19.7388 0.551059C19.6003 0.408589 19.4482 0.280244 19.2848 0.167885C18.8425 -0.108553 18.3083 -0.0381091 17.9124 0.338658C16.3345 1.83292 14.7579 3.32718 13.1828 4.82144L7.54536 10.173C5.65001 11.9718 3.75642 13.7703 1.8646 15.5684C1.35891 16.0487 0.833172 16.5076 0.363382 17.0274C-0.0589003 17.4949 -0.0905715 18.0894 0.152241 18.6764C0.377107 19.2293 0.785666 19.5025 1.35469 19.4972C1.74636 19.4972 2.13697 19.4972 2.52864 19.4972H3.07655C3.07655 19.558 3.08288 19.5837 3.08288 19.6039C3.08288 21.3373 3.08288 23.0699 3.08288 24.8018C3.08288 27.6573 3.08288 30.5124 3.08288 33.3672C3.08288 33.6521 3.20535 33.7813 3.47033 33.7834C3.68147 33.7834 3.89261 33.7834 4.10375 33.7834C4.48908 33.7834 4.59043 33.6767 4.59043 33.2497V28.2333C4.59043 27.351 4.59043 26.4683 4.59043 25.5853C4.59043 23.4506 4.59782 21.3159 4.59043 19.1813C4.59043 18.2975 4.02246 17.7233 3.19901 17.7222H2.22143C2.16442 17.7222 2.10741 17.7148 2.02084 17.7084C2.08313 17.6454 2.12008 17.6016 2.15808 17.5696C3.72123 16.086 5.28474 14.6032 6.84859 13.121C8.72282 11.3421 10.5956 9.56109 12.4671 7.77794C13.5101 6.78746 14.5531 5.79627 15.5962 4.80436L17.7255 2.78925C18.0422 2.47759 18.3727 2.17233 18.701 1.86067C18.7285 1.88202 18.7485 1.89482 18.7665 1.91083C19.6195 2.722 20.4728 3.53282 21.3266 4.34328C21.7689 4.76381 22.207 5.1886 22.6546 5.60166C23.1023 6.01471 23.6692 6.03393 24.1537 5.66997C24.4504 5.4469 24.5971 5.12029 24.6816 4.7574H26.925C26.925 4.94845 26.925 5.11495 26.925 5.28146C26.925 6.46939 26.944 7.65733 26.925 8.8442C26.9164 9.11218 26.9674 9.37869 27.0741 9.62415C27.1808 9.86961 27.3405 10.0878 27.5415 10.2627C30.0843 12.6649 32.624 15.0728 35.1605 17.4864C35.2365 17.5568 35.3031 17.6219 35.4023 17.7244Z" fill="#FCFCFE"/>
</svg>
