<svg width="96" height="41" viewBox="0 0 96 41" fill="none" xmlns="http://www.w3.org/2000/svg">
<path d="M88.1499 33.7075L83.6178 20.7539H87.1322L89.2194 27.4785L89.7958 29.5545H89.8549C89.9742 29.0003 90.1526 28.3087 90.4112 27.4785L92.5385 20.7539H96.0002L91.449 33.7075H88.1499ZM50.1445 33.7075V15.6715H53.603V33.7288H50.1487L50.1445 33.7075ZM38.2435 37.9586V35.2496H39.4554C40.7476 35.2496 41.3832 34.6571 41.3832 33.4901C41.3832 32.9157 41.0453 31.7498 40.3897 29.9893L36.8721 20.7741H40.509L42.4368 26.6078L43.2718 29.4362H43.3309C43.5695 28.3481 43.8282 27.3986 44.0868 26.6078L45.9153 20.7741H49.3928L44.8417 34.0635C44.3254 35.5459 43.7691 36.5743 43.1325 37.1284C42.4991 37.7018 41.5426 37.981 40.2504 37.981H38.2446L38.2435 37.9586ZM33.1761 33.7075L29.5191 27.7939L28.0126 29.3371V33.7065H24.5689V15.6715H28.0126V25.6785L32.644 20.7763H36.7982L31.9884 25.6998L37.3725 33.7288H33.175L33.1761 33.7075ZM16.0642 34.1221C13.5991 34.1221 11.6914 33.6084 10.3401 32.5598C8.98881 31.5324 8.27304 30.049 8.21286 28.1307H11.8308C11.9501 29.1964 12.3269 29.9893 12.9836 30.4443C13.6392 30.9186 14.6126 31.1562 15.9248 31.1562C16.9583 31.1562 17.8124 30.958 18.4691 30.5829C19.1257 30.2077 19.4614 29.6142 19.4614 28.8266C19.4636 28.5649 19.4233 28.3046 19.3421 28.0561C19.2455 27.809 19.0797 27.5957 18.8649 27.4422C18.6264 27.2643 18.4279 27.1225 18.2495 27.0074C18.0711 26.8923 17.7723 26.7943 17.3152 26.6515C16.858 26.5332 16.5002 26.4384 16.2816 26.3744C16.043 26.3158 15.606 26.2167 14.9493 26.0547C14.1744 25.8767 13.5389 25.719 13.0216 25.5805C12.4532 25.4229 11.9011 25.2109 11.3726 24.9474C10.8447 24.7172 10.3603 24.3963 9.94105 23.999C9.58317 23.6622 9.30763 23.2071 9.06693 22.6338C8.81927 22.019 8.69753 21.3599 8.70904 20.6963C8.70904 18.956 9.34247 17.6303 10.6368 16.701C11.9289 15.8112 13.598 15.3369 15.6852 15.3369C17.7522 15.3369 19.4012 15.8314 20.6544 16.8001C21.8864 17.7688 22.5821 19.1734 22.7204 20.9724H19.1827C19.0835 20.1027 18.7066 19.4303 18.07 18.956C17.4334 18.4818 16.6395 18.2442 15.6651 18.2442C14.6717 18.2442 13.8767 18.4413 13.2803 18.8175C12.6855 19.2125 12.3882 19.7262 12.3882 20.3585C12.3756 20.6699 12.4511 20.9786 12.6059 21.2482C12.7607 21.5179 12.9884 21.7376 13.2623 21.8814C13.8387 22.2011 14.8723 22.5144 16.3429 22.8501C17.218 23.0281 17.9528 23.2061 18.5092 23.3649C19.1261 23.5493 19.7305 23.7739 20.3186 24.0373C20.878 24.2729 21.3948 24.6002 21.8484 25.006C22.2456 25.4053 22.5569 25.8832 22.7626 26.4096C23.0206 27.0499 23.1491 27.7358 23.1406 28.427C23.1406 30.2067 22.485 31.6113 21.1727 32.6194C19.8837 33.6084 18.1692 34.1221 16.0631 34.1221H16.0642ZM79.2862 26.6472C79.2908 26.9737 79.1991 27.2941 79.0228 27.5678C78.8465 27.8415 78.5935 28.056 78.296 28.1841C77.9985 28.3123 77.67 28.3481 77.3523 28.2872C77.0346 28.2263 76.7419 28.0714 76.5117 27.8421C76.2814 27.6129 76.124 27.3196 76.0593 26.9998C75.9946 26.6799 76.0256 26.3478 76.1485 26.0458C76.2713 25.7438 76.4803 25.4855 76.749 25.3037C77.0177 25.122 77.3338 25.0251 77.6573 25.0252C78.0855 25.0246 78.4967 25.1947 78.8016 25.4984C79.1064 25.8021 79.2801 26.2149 79.2852 26.6472H79.2862ZM64.6182 26.6472C64.6228 26.9737 64.5311 27.2941 64.3548 27.5678C64.1785 27.8415 63.9255 28.056 63.628 28.1841C63.3305 28.3123 63.002 28.3481 62.6843 28.2872C62.3666 28.2263 62.074 28.0714 61.8437 27.8421C61.6135 27.6129 61.456 27.3196 61.3913 26.9998C61.3266 26.6799 61.3577 26.3478 61.4805 26.0458C61.6033 25.7438 61.8123 25.4855 62.081 25.3037C62.3497 25.122 62.6658 25.0251 62.9893 25.0252C63.4175 25.0246 63.8288 25.1947 64.1336 25.4984C64.4384 25.8021 64.6122 26.2149 64.6172 26.6472H64.6182ZM77.4197 30.1054C76.9618 30.1093 76.5078 30.0204 76.0846 29.8439C75.6613 29.6674 75.2774 29.407 74.9557 29.0781L72.4917 26.627L74.7171 24.4316L74.9557 24.194C75.6129 23.5427 76.4988 23.1806 77.4197 23.1869C79.3485 23.1869 80.9183 24.7492 80.9183 26.6472C80.9152 28.5655 79.3453 30.1054 77.4197 30.1054ZM67.4824 30.3037L67.324 30.4624C66.2961 31.4834 64.9095 32.052 63.4675 32.044C60.4672 32.044 58.0222 29.612 58.0222 26.6451C58.0222 23.6611 60.4672 21.2462 63.4675 21.2462C64.908 21.247 66.2915 21.8147 67.324 22.8288L71.1594 26.6451L67.4824 30.3037ZM77.5992 20.1198C76.4588 20.1175 75.3373 20.4134 74.3439 20.9785C73.3504 21.5436 72.5188 22.3588 71.93 23.3446C70.5787 20.0228 67.3398 17.8275 63.6818 17.8275C58.7728 17.8275 54.798 21.7823 54.798 26.6472C54.798 31.5122 58.7928 35.467 63.6818 35.467C67.3398 35.467 70.5787 33.2716 71.93 29.9498C72.5203 30.9333 73.3516 31.7466 74.3439 32.3113C75.3362 32.876 76.4559 33.173 77.595 33.1736C81.2118 33.1736 84.1731 30.2461 84.1731 26.6472C84.1731 23.0483 81.2329 20.1219 77.596 20.1219L77.5992 20.1198Z" fill="#161616"/>
<path d="M35.4023 17.6974C34.9462 17.6974 34.544 17.6974 34.1418 17.6974C33.8513 17.6934 33.5682 17.7903 33.3401 17.9719C33.1119 18.1535 32.9525 18.4088 32.8887 18.6949C32.8367 18.9082 32.8122 19.1274 32.8158 19.3471C32.8158 19.4739 32.8158 19.6018 32.8158 19.7286H34.3297V19.4665H34.5408C35.0592 19.4665 35.5775 19.4665 36.0959 19.4665C36.3312 19.4726 36.563 19.4081 36.762 19.2812C36.9611 19.1543 37.1183 18.9707 37.2139 18.7535C37.5665 18.0501 37.4176 17.3148 36.8201 16.7511C35.8482 15.8324 34.8769 14.9127 33.9064 13.9919C32.1307 12.3103 30.355 10.6286 28.5793 8.9469C28.5339 8.90773 28.4982 8.85847 28.4749 8.80298C28.4517 8.7475 28.4415 8.68732 28.4452 8.62719C28.4494 7.38884 28.4494 6.1512 28.4452 4.91428C28.4531 4.67482 28.4436 4.4351 28.4167 4.19706C28.3723 3.8944 28.2847 3.60879 28.0651 3.41057L27.9416 3.28588C27.9414 3.27997 27.9392 3.27432 27.9353 3.2699C27.7274 3.08626 27.4609 2.98447 27.1847 2.98322C26.2754 2.98322 25.3657 2.98322 24.4557 2.98322C24.2747 2.97989 24.0957 3.02056 23.9336 3.10181C23.7716 3.18305 23.6312 3.30248 23.5245 3.45C23.429 3.59136 23.3412 3.73794 23.2617 3.88907C23.2279 3.85923 23.1952 3.83045 23.1645 3.80168C22.0223 2.7175 20.8803 1.63369 19.7388 0.55022C19.6003 0.407967 19.4482 0.279818 19.2848 0.167629C18.8425 -0.108388 18.3083 -0.0380511 17.9124 0.338142C16.3345 1.83013 14.7579 3.32211 13.1828 4.8141L7.54536 10.1575C5.65001 11.9536 3.75642 13.7493 1.8646 15.5447C1.35891 16.0242 0.833172 16.4825 0.363382 17.0015C-0.0589003 17.4683 -0.0905715 18.0619 0.152241 18.648C0.377107 19.2 0.785666 19.4729 1.35469 19.4675C1.74636 19.4675 2.13697 19.4675 2.52864 19.4675H3.07655C3.07655 19.5283 3.08288 19.5539 3.08288 19.5741C3.08288 21.3048 3.08288 23.0348 3.08288 24.7641C3.08288 27.6152 3.08288 30.466 3.08288 33.3164C3.08288 33.6009 3.20535 33.7299 3.47033 33.732C3.68147 33.732 3.89261 33.732 4.10375 33.732C4.48908 33.732 4.59043 33.6254 4.59043 33.1991V28.1903C4.59043 27.3093 4.59043 26.428 4.59043 25.5463C4.59043 23.4149 4.59782 21.2835 4.59043 19.1521C4.59043 18.2697 4.02246 17.6963 3.19901 17.6953H2.22143C2.16442 17.6953 2.10741 17.6878 2.02084 17.6814C2.08313 17.6185 2.12008 17.5748 2.15808 17.5429C3.72123 16.0615 5.28474 14.5809 6.84859 13.101C8.72282 11.3248 10.5956 9.54654 12.4671 7.7661C13.5101 6.77713 14.5531 5.78744 15.5962 4.79705L17.7255 2.785C18.0422 2.47382 18.3727 2.16902 18.701 1.85784C18.7285 1.87915 18.7485 1.89194 18.7665 1.90793C19.6195 2.71786 20.4728 3.52744 21.3266 4.33667C21.7689 4.75655 22.207 5.1807 22.6546 5.59313C23.1023 6.00556 23.6692 6.02474 24.1537 5.66134C24.4504 5.4386 24.5971 5.1125 24.6816 4.75016H26.925C26.925 4.94092 26.925 5.10717 26.925 5.27342C26.925 6.45955 26.944 7.64568 26.925 8.83074C26.9164 9.09831 26.9674 9.36441 27.0741 9.6095C27.1808 9.85459 27.3405 10.0724 27.5415 10.2471C30.0843 12.6456 32.624 15.0498 35.1605 17.4597C35.2365 17.5301 35.3031 17.5951 35.4023 17.6974Z" fill="#161616"/>
<path d="M51.2851 38.1318C51.8647 38.1318 52.1761 38.467 52.1761 38.8854C52.1829 39.0204 52.1463 39.1539 52.072 39.2662C51.9976 39.3785 51.8893 39.4636 51.7633 39.5087V39.5236C51.9045 39.5648 52.0275 39.6537 52.1116 39.7755C52.1958 39.8973 52.2361 40.0446 52.2257 40.1928C52.2257 40.6614 51.8942 40.9955 51.3189 40.9955C50.7435 40.9955 50.3339 40.7222 50.3149 40.0947H50.9388C50.9344 40.1432 50.9407 40.1922 50.9571 40.2381C50.9736 40.2839 50.9998 40.3256 51.034 40.36C51.0681 40.3945 51.1094 40.4209 51.1548 40.4373C51.2002 40.4538 51.2487 40.46 51.2967 40.4554C51.338 40.4588 51.3796 40.4531 51.4185 40.4386C51.4574 40.4241 51.4928 40.4013 51.5221 40.3716C51.5514 40.342 51.574 40.3063 51.5883 40.2669C51.6027 40.2276 51.6083 40.1855 51.605 40.1437C51.605 39.8961 51.4582 39.7979 51.1236 39.7979H51.0032V39.2696H51.1236C51.3421 39.2696 51.5522 39.2162 51.5522 38.9654C51.5563 38.9268 51.5518 38.8877 51.5391 38.8511C51.5265 38.8144 51.5059 38.781 51.4789 38.7534C51.452 38.7257 51.4193 38.7044 51.3832 38.6911C51.3471 38.6777 51.3086 38.6726 51.2703 38.6762C51.0592 38.6762 50.9884 38.8277 50.9768 38.9804H50.3487C50.3709 38.4328 50.7245 38.1318 51.2851 38.1318Z" fill="#161616"/>
<path d="M53.9584 38.9465C53.9215 38.7639 53.8307 38.6647 53.6417 38.6647C53.3514 38.6647 53.2385 38.9123 53.2353 39.4481C53.3007 39.3547 53.3885 39.2796 53.4904 39.2298C53.5923 39.18 53.705 39.157 53.818 39.1631C54.2952 39.1631 54.6341 39.4833 54.6341 40.0565C54.6341 40.6083 54.2878 40.9883 53.6977 40.9883C52.87 40.9883 52.6673 40.3948 52.6673 39.5666C52.6673 38.6156 52.9608 38.1406 53.6713 38.1406C54.2614 38.1406 54.5254 38.5355 54.5591 38.9465H53.9584ZM53.286 40.049C53.2809 40.1012 53.2873 40.1538 53.3047 40.2032C53.3222 40.2525 53.3503 40.2973 53.3869 40.3344C53.4236 40.3714 53.4679 40.3998 53.5167 40.4175C53.5655 40.4351 53.6176 40.4416 53.6692 40.4364C53.7182 40.4397 53.7673 40.432 53.8131 40.4141C53.8589 40.3961 53.9003 40.3683 53.9343 40.3325C53.9684 40.2968 53.9943 40.2539 54.0104 40.207C54.0264 40.16 54.0321 40.1101 54.0271 40.0607C54.0271 39.8281 53.9025 39.6765 53.6618 39.6765C53.6121 39.6724 53.562 39.6792 53.5151 39.6964C53.4682 39.7136 53.4254 39.7407 53.3898 39.7761C53.3542 39.8114 53.3265 39.854 53.3085 39.9011C53.2906 39.9482 53.2829 39.9986 53.286 40.049V40.049Z" fill="#161616"/>
<path d="M56.0527 38.1406C56.835 38.1406 57.1084 38.733 57.1084 39.5474C57.1084 40.3617 56.8339 40.9616 56.0527 40.9616C55.2715 40.9616 54.997 40.3681 54.997 39.5474C54.997 38.7266 55.2704 38.1406 56.0527 38.1406ZM56.0527 38.749C55.6726 38.749 55.6304 39.1215 55.6304 39.5474C55.6304 39.9732 55.6748 40.3532 56.0527 40.3532C56.4306 40.3532 56.475 39.9882 56.475 39.5474C56.475 39.1066 56.4328 38.749 56.0527 38.749Z" fill="#161616"/>
<path d="M59.3513 40.0149H58.9522V40.9755H58.3114V38.3071H59.3534C60.0005 38.3071 60.3236 38.6754 60.3236 39.1663C60.3173 39.6039 60.0238 40.0149 59.3513 40.0149ZM59.3017 39.4972C59.5582 39.4972 59.6669 39.368 59.6669 39.1631C59.6669 38.9582 59.5614 38.828 59.3017 38.828H58.9522V39.4972H59.3017Z" fill="#161616"/>
<path d="M61.7348 38.304C62.3819 38.304 62.705 38.6797 62.705 39.1439C62.7089 39.321 62.6529 39.494 62.5461 39.6344C62.4393 39.7748 62.2883 39.874 62.118 39.9156L62.7272 40.9733H62.0061L61.4571 39.9658H61.2988V40.9733H60.6548V38.305L61.7348 38.304ZM61.6968 38.844H61.2988V39.5058H61.6968C61.9375 39.5058 62.0504 39.3798 62.0504 39.1706C62.0504 38.9614 61.9375 38.844 61.6968 38.844V38.844Z" fill="#161616"/>
<path d="M64.3554 40.9999C64.0878 41.0011 63.8258 40.9221 63.6026 40.7727C63.3794 40.6233 63.2051 40.4104 63.1017 40.1608C62.9983 39.9112 62.9705 39.6362 63.0218 39.3706C63.0731 39.105 63.2012 38.8608 63.3899 38.6689C63.5785 38.4769 63.8193 38.3459 64.0816 38.2924C64.344 38.2389 64.6162 38.2653 64.8637 38.3682C65.1112 38.4712 65.323 38.6461 65.4721 38.8708C65.6212 39.0955 65.7011 39.3599 65.7015 39.6305C65.705 39.8106 65.6727 39.9896 65.6064 40.1568C65.5402 40.324 65.4413 40.476 65.3157 40.6037C65.1901 40.7315 65.0404 40.8324 64.8754 40.9005C64.7104 40.9685 64.5336 41.0023 64.3554 40.9999ZM64.3554 40.4064C64.7777 40.4064 65.0512 40.098 65.0512 39.6305C65.0512 39.163 64.7767 38.8545 64.3554 38.8545C63.9342 38.8545 63.6566 39.1555 63.6566 39.6305C63.6566 40.1054 63.9268 40.4064 64.3554 40.4064V40.4064Z" fill="#161616"/>
<path d="M67.104 40.0149H66.7049V40.9755H66.062V38.3071H67.104C67.7511 38.3071 68.0742 38.6754 68.0742 39.1663C68.0742 39.6039 67.7775 40.0149 67.104 40.0149ZM67.0554 39.4972C67.3109 39.4972 67.4197 39.368 67.4197 39.1631C67.4197 38.9582 67.3141 38.828 67.0554 38.828H66.7049V39.4972H67.0554Z" fill="#161616"/>
<path d="M70.0295 38.825H69.0562V39.365H69.9166V39.8667H69.0562V40.4526H70.0295V40.9735H68.409V38.3052H70.0295V38.825Z" fill="#161616"/>
<path d="M71.5223 38.304C72.1694 38.304 72.4925 38.6797 72.4925 39.1439C72.4964 39.321 72.4403 39.494 72.3336 39.6344C72.2268 39.7748 72.0757 39.874 71.9055 39.9156L72.5146 40.9733H71.7894L71.2404 39.9658H71.0852V40.9733H70.4412V38.305L71.5223 38.304ZM71.4843 38.844H71.0852V39.5058H71.4832C71.7239 39.5058 71.8369 39.3798 71.8369 39.1706C71.8369 38.9614 71.725 38.844 71.4843 38.844V38.844Z" fill="#161616"/>
<path d="M72.7511 38.304H74.7939V38.8248H74.0939V40.9733H73.451V38.8248H72.7511V38.304Z" fill="#161616"/>
<path d="M74.9088 38.304H75.6393L76.1524 39.4215L76.6602 38.304H77.3823L76.4691 40.0907V40.9733H75.8262V40.0907L74.9088 38.304Z" fill="#161616"/>
<path d="M79.4779 40.0149H79.0799V40.9755H78.4359V38.3071H79.4779C80.1251 38.3071 80.4481 38.6754 80.4481 39.1663C80.4481 39.6039 80.1515 40.0149 79.4779 40.0149ZM79.4294 39.4972C79.6848 39.4972 79.7936 39.368 79.7936 39.1631C79.7936 38.9582 79.688 38.828 79.4294 38.828H79.0799V39.4972H79.4294Z" fill="#161616"/>
<path d="M82.0317 40.9999C81.7642 41.0005 81.5025 40.9209 81.2798 40.7712C81.057 40.6214 80.8832 40.4082 80.7803 40.1586C80.6774 39.9089 80.65 39.634 80.7017 39.3686C80.7533 39.1033 80.8816 38.8593 81.0704 38.6677C81.2592 38.4761 81.5 38.3454 81.7623 38.2922C82.0246 38.2389 82.2966 38.2655 82.5439 38.3685C82.7912 38.4716 83.0028 38.6465 83.1518 38.8711C83.3008 39.0958 83.3805 39.36 83.3809 39.6305C83.3843 39.8108 83.3518 39.99 83.2853 40.1574C83.2188 40.3247 83.1196 40.4768 82.9937 40.6046C82.8678 40.7324 82.7178 40.8332 82.5525 40.9011C82.3872 40.9691 82.2101 41.0026 82.0317 40.9999ZM82.0317 40.4064C82.454 40.4064 82.7275 40.098 82.7275 39.6305C82.7275 39.163 82.453 38.8545 82.0317 38.8545C81.6105 38.8545 81.3318 39.1555 81.3318 39.6305C81.3318 40.1054 81.6021 40.4064 82.0317 40.4064V40.4064Z" fill="#161616"/>
<path d="M84.8175 38.304C85.4636 38.304 85.7877 38.6797 85.7877 39.1439C85.7916 39.321 85.7356 39.494 85.6288 39.6344C85.522 39.7748 85.371 39.874 85.2007 39.9156L85.8099 40.9733H85.0846L84.5346 39.9658H84.3804V40.9733H83.7375V38.305L84.8175 38.304ZM84.7795 38.844H84.3804V39.5058H84.7795C85.0202 39.5058 85.1331 39.3798 85.1331 39.1706C85.1331 38.9614 85.0202 38.844 84.7795 38.844V38.844Z" fill="#161616"/>
<path d="M86.0463 38.304H88.0891V38.8248H87.3891V40.9733H86.7462V38.8248H86.0463V38.304Z" fill="#161616"/>
<path d="M90.0551 40.4995H89.0701L88.9118 40.9713H88.2382L89.1884 38.303H89.9337L90.8838 40.9713H90.2029L90.0551 40.4995ZM89.56 39.0224L89.2433 40H89.8936L89.56 39.0224Z" fill="#161616"/>
<path d="M91.8256 38.304V40.4706H92.6702V40.9733H91.1827V38.305L91.8256 38.304Z" fill="#161616"/>
</svg>
